<svg width="20" height="20" viewBox="0 0 20 20" fill="none" xmlns="http://www.w3.org/2000/svg">
<path d="M3.33203 7.5C3.33203 5.14333 3.33203 3.96417 4.06453 3.2325C4.7962 2.5 5.97536 2.5 8.33203 2.5H11.6654C14.022 2.5 15.2012 2.5 15.9329 3.2325C16.6654 3.96417 16.6654 5.14333 16.6654 7.5V13.19C16.6654 15.4258 16.6654 16.5433 15.962 16.8858C15.2579 17.2275 14.3787 16.5367 12.6204 15.1558L12.0579 14.7133C11.0695 13.9367 10.5745 13.5483 9.9987 13.5483C9.42203 13.5483 8.92786 13.9367 7.93953 14.7133L7.3762 15.155C5.61786 16.5367 4.73953 17.2275 4.03536 16.8858C3.33203 16.5442 3.33203 15.425 3.33203 13.19V7.5Z" fill="#A07EFF" stroke="#A07EFF" stroke-width="2"/>
</svg>
