<svg width="40" height="40" viewBox="0 0 40 40" fill="none" xmlns="http://www.w3.org/2000/svg">
  <path fill-rule="evenodd" clip-rule="evenodd" d="M26.8984 2.2998C26.8984 2.85209 27.3462 3.2998 27.8984 3.2998H33.8176L27.0864 10.031C25.4355 8.70122 23.3715 7.96647 21.2318 7.96647C19.4711 7.96647 17.7617 8.46395 16.2916 9.38108C14.9598 8.67739 13.4649 8.2998 11.931 8.2998C9.45564 8.2998 7.08167 9.28314 5.33133 11.0335C3.58099 12.7838 2.59766 15.1578 2.59766 17.6331C2.59766 20.1085 3.58099 22.4825 5.33133 24.2328C6.84434 25.7458 8.82333 26.6857 10.931 26.9128V31.6331H6.93099C6.3787 31.6331 5.93099 32.0809 5.93099 32.6331C5.93099 33.1854 6.3787 33.6331 6.93099 33.6331H10.931V37.6331C10.931 38.1854 11.3787 38.6331 11.931 38.6331C12.4833 38.6331 12.931 38.1854 12.931 37.6331V33.6331H16.931C17.4833 33.6331 17.931 33.1854 17.931 32.6331C17.931 32.0809 17.4833 31.6331 16.931 31.6331H12.931V26.9128C14.3347 26.7616 15.6813 26.2942 16.8712 25.5519C18.2029 26.2556 19.6979 26.6331 21.2318 26.6331C23.7071 26.6331 26.0811 25.6498 27.8314 23.8995C29.5818 22.1491 30.5651 19.7752 30.5651 17.2998C30.5651 15.1601 29.8304 13.0961 28.5006 11.4452L35.2318 4.71402V10.6331C35.2318 11.1854 35.6795 11.6331 36.2318 11.6331C36.7841 11.6331 37.2318 11.1854 37.2318 10.6331V2.2998C37.2318 1.74752 36.7841 1.2998 36.2318 1.2998H27.8984C27.3462 1.2998 26.8984 1.74752 26.8984 2.2998ZM18.6129 24.1496C19.4412 24.4663 20.3279 24.6331 21.2318 24.6331C23.1767 24.6331 25.042 23.8605 26.4172 22.4853C27.7925 21.11 28.5651 19.2447 28.5651 17.2998C28.5651 15.3549 27.7925 13.4896 26.4172 12.1144C25.042 10.7391 23.1767 9.96647 21.2318 9.96647C20.1493 9.96647 19.0916 10.2058 18.1292 10.6551C18.2664 10.7769 18.4002 10.9031 18.5307 11.0335C20.281 12.7838 21.2643 15.1578 21.2643 17.6331C21.2643 20.0695 20.3118 22.4076 18.6129 24.1496ZM16.3784 11.8023C16.6371 11.9996 16.8838 12.215 17.1164 12.4477C18.4917 13.823 19.2643 15.6882 19.2643 17.6331C19.2643 19.5781 18.4917 21.4433 17.1164 22.8186C17.0087 22.9263 16.8979 23.0304 16.7844 23.1307C16.5257 22.9333 16.279 22.7179 16.0463 22.4853C14.6711 21.11 13.8984 19.2447 13.8984 17.2998C13.8984 15.3549 14.6711 13.4896 16.0463 12.1144C16.1541 12.0066 16.2648 11.9026 16.3784 11.8023ZM14.5499 10.7834C12.851 12.5254 11.8984 14.8635 11.8984 17.2998C11.8984 19.7752 12.8818 22.1491 14.6321 23.8995C14.7625 24.0299 14.8964 24.156 15.0335 24.2778C14.0712 24.7272 13.0134 24.9665 11.931 24.9665C9.98607 24.9665 8.12081 24.1939 6.74554 22.8186C5.37027 21.4433 4.59766 19.5781 4.59766 17.6331C4.59766 15.6882 5.37027 13.823 6.74554 12.4477C8.12081 11.0724 9.98607 10.2998 11.931 10.2998C12.8349 10.2998 13.7216 10.4667 14.5499 10.7834Z" fill="white"/>
  </svg>
  