<svg width="40" height="40" viewBox="0 0 40 40" fill="none" xmlns="http://www.w3.org/2000/svg">
  <path d="M31.6673 8.3335L22.6673 17.3335M31.6673 8.3335H23.334M31.6673 8.3335V16.6668M8.33398 23.3335C8.33398 25.5436 9.21196 27.6633 10.7748 29.2261C12.3376 30.7889 14.4572 31.6668 16.6673 31.6668C18.8775 31.6668 20.9971 30.7889 22.5599 29.2261C24.1227 27.6633 25.0007 25.5436 25.0007 23.3335C25.0007 21.1234 24.1227 19.0037 22.5599 17.4409C20.9971 15.8781 18.8775 15.0002 16.6673 15.0002C14.4572 15.0002 12.3376 15.8781 10.7748 17.4409C9.21196 19.0037 8.33398 21.1234 8.33398 23.3335Z" stroke="#A07EFF" stroke-width="2" stroke-linecap="round" stroke-linejoin="round"/>
  </svg>
  