<svg width="24" height="24" viewBox="0 0 24 24" fill="none" xmlns="http://www.w3.org/2000/svg">
  <path d="M8.39844 15.5999L15.5984 8.3999M8.95234 8.94924L8.93819 8.93495M15.0629 15.1226L15.0487 15.1083M7.9213 4.38723L6.90339 4.44922C5.58195 4.5297 4.52823 5.58342 4.44776 6.90485L4.38576 7.92276C4.3502 8.50667 4.12023 9.06187 3.73249 9.4999L3.05656 10.2635C2.17906 11.2548 2.17906 12.745 3.05656 13.7363L3.73249 14.4999C4.12023 14.9379 4.3502 15.4931 4.38576 16.077L4.44776 17.0949C4.52823 18.4164 5.58195 19.4701 6.90339 19.5506L7.9213 19.6126C8.5052 19.6481 9.06041 19.8781 9.49844 20.2658L10.262 20.9418C11.2533 21.8193 12.7435 21.8193 13.7348 20.9418L14.4984 20.2658C14.9365 19.8781 15.4917 19.6481 16.0756 19.6126L17.0935 19.5506C18.4149 19.4701 19.4686 18.4164 19.5491 17.0949L19.6111 16.077C19.6467 15.4931 19.8766 14.9379 20.2644 14.4999L20.9403 13.7363C21.8178 12.745 21.8178 11.2548 20.9403 10.2635L20.2644 9.4999C19.8766 9.06187 19.6467 8.50667 19.6111 7.92276L19.5491 6.90485C19.4686 5.58341 18.4149 4.5297 17.0935 4.44922L16.0756 4.38723C15.4917 4.35167 14.9365 4.12169 14.4984 3.73395L13.7348 3.05802C12.7435 2.18053 11.2533 2.18053 10.262 3.05802L9.49844 3.73395C9.06041 4.12169 8.5052 4.35167 7.9213 4.38723Z" stroke="#A07EFF" stroke-width="1.5" stroke-linecap="round"/>
  </svg>
  