<svg width="25" height="24" viewBox="0 0 25 24" fill="none" xmlns="http://www.w3.org/2000/svg">
<path d="M15.9999 12C15.0362 12 14.1043 11.5697 13.3749 10.7888C12.6657 10.027 12.2326 9.01125 12.1562 7.92938C12.0746 6.77531 12.4267 5.71406 13.1471 4.94063C13.8676 4.16719 14.8749 3.75 15.9999 3.75C17.117 3.75 18.1271 4.17469 18.8453 4.94625C19.5704 5.72531 19.9234 6.78469 19.8418 7.92891C19.7635 9.01219 19.3309 10.0275 18.6231 10.7883C17.8956 11.5697 16.9642 12 15.9999 12ZM22.1795 20.25H9.82088C9.62219 20.2511 9.42589 20.2065 9.24711 20.1198C9.06833 20.0331 8.91182 19.9065 8.78963 19.7498C8.66003 19.58 8.57052 19.383 8.52782 19.1736C8.48513 18.9643 8.49034 18.748 8.54307 18.5409C8.93776 16.9561 9.91557 15.6417 11.3706 14.7403C12.662 13.9406 14.3059 13.5 15.9999 13.5C17.7273 13.5 19.3281 13.9219 20.627 14.7211C22.0853 15.6178 23.0645 16.9397 23.4573 18.5438C23.5094 18.751 23.514 18.9673 23.4708 19.1765C23.4277 19.3857 23.3378 19.5825 23.2079 19.7522C23.0859 19.9082 22.9297 20.0341 22.7514 20.1204C22.5732 20.2067 22.3775 20.251 22.1795 20.25ZM7.14057 12.1875C5.49104 12.1875 4.04073 10.6538 3.9062 8.76891C3.83963 7.80328 4.14057 6.91031 4.74995 6.25547C5.35276 5.60719 6.20307 5.25 7.14057 5.25C8.07807 5.25 8.92182 5.60906 9.52792 6.26109C10.142 6.92109 10.442 7.81219 10.3717 8.76984C10.2371 10.6542 8.78729 12.1875 7.14057 12.1875ZM10.2184 13.6617C9.39385 13.2586 8.3237 13.057 7.14104 13.057C5.7601 13.057 4.41901 13.417 3.36432 14.0705C2.16854 14.8125 1.36417 15.893 1.03932 17.1975C0.991783 17.3851 0.987287 17.5811 1.02617 17.7707C1.06505 17.9603 1.14631 18.1387 1.26385 18.2925C1.37539 18.4357 1.51828 18.5514 1.68154 18.6307C1.8448 18.71 2.02407 18.7508 2.20557 18.75H7.4087C7.49652 18.75 7.58155 18.7192 7.64896 18.6629C7.71638 18.6066 7.76191 18.5284 7.7776 18.442C7.78276 18.4125 7.78932 18.383 7.79682 18.3539C8.19432 16.7573 9.12573 15.4083 10.502 14.4248C10.5526 14.3884 10.5933 14.3398 10.6204 14.2836C10.6475 14.2274 10.6602 14.1653 10.6573 14.103C10.6544 14.0407 10.6359 13.9801 10.6036 13.9267C10.5714 13.8733 10.5263 13.8288 10.4724 13.7972C10.3989 13.7541 10.3145 13.7086 10.2184 13.6617Z" fill="#9446F6"/>
</svg>
