<svg width="24" height="24" viewBox="0 0 24 24" fill="none" xmlns="http://www.w3.org/2000/svg">
  <path d="M4 5.27647C3.50294 5.27647 3.1 5.67941 3.1 6.17647C3.1 6.67353 3.50294 7.07647 4 7.07647V5.27647ZM20 7.07647C20.4971 7.07647 20.9 6.67353 20.9 6.17647C20.9 5.67941 20.4971 5.27647 20 5.27647V7.07647ZM9.1 16.7647C9.1 17.2618 9.50294 17.6647 10 17.6647C10.4971 17.6647 10.9 17.2618 10.9 16.7647H9.1ZM10.9 10.4118C10.9 9.91471 10.4971 9.51177 10 9.51177C9.50294 9.51177 9.1 9.91471 9.1 10.4118H10.9ZM13.1 16.7647C13.1 17.2618 13.5029 17.6647 14 17.6647C14.4971 17.6647 14.9 17.2618 14.9 16.7647H13.1ZM14.9 10.4118C14.9 9.91471 14.4971 9.51177 14 9.51177C13.5029 9.51177 13.1 9.91471 13.1 10.4118H14.9ZM16 20.1H8V21.9H16V20.1ZM17.1 18.8824C17.1 19.604 16.5597 20.1 16 20.1V21.9C17.6494 21.9 18.9 20.4998 18.9 18.8824H17.1ZM17.1 7.23529V18.8824H18.9V7.23529H17.1ZM6.9 18.8824V7.23529H5.1V18.8824H6.9ZM8 20.1C7.44026 20.1 6.9 19.604 6.9 18.8824H5.1C5.1 20.4998 6.3506 21.9 8 21.9V20.1ZM17 5.27647H7V7.07647H17V5.27647ZM6.9 7.23529C6.9 7.17481 6.92258 7.13063 6.94721 7.10455C6.97099 7.07937 6.98957 7.07647 7 7.07647V5.27647C5.90288 5.27647 5.1 6.20263 5.1 7.23529H6.9ZM18.9 7.23529C18.9 6.20263 18.0971 5.27647 17 5.27647V7.07647C17.0104 7.07647 17.029 7.07937 17.0528 7.10455C17.0774 7.13063 17.1 7.17481 17.1 7.23529H18.9ZM4 7.07647H20V5.27647H4V7.07647ZM10 3.9H14V2.1H10V3.9ZM14.1 4.05882V5.11765H15.9V4.05882H14.1ZM14 5.27647H10V7.07647H14V5.27647ZM9.9 5.11765V4.05882H8.1V5.11765H9.9ZM10 5.27647C9.98957 5.27647 9.97099 5.27357 9.94721 5.24839C9.92258 5.22231 9.9 5.17813 9.9 5.11765H8.1C8.1 6.15032 8.90288 7.07647 10 7.07647V5.27647ZM14.1 5.11765C14.1 5.17813 14.0774 5.22231 14.0528 5.24839C14.029 5.27357 14.0104 5.27647 14 5.27647V7.07647C15.0971 7.07647 15.9 6.15032 15.9 5.11765H14.1ZM14 3.9C14.0104 3.9 14.029 3.9029 14.0528 3.92808C14.0774 3.95416 14.1 3.99834 14.1 4.05882H15.9C15.9 3.02616 15.0971 2.1 14 2.1V3.9ZM10 2.1C8.90288 2.1 8.1 3.02615 8.1 4.05882H9.9C9.9 3.99834 9.92258 3.95416 9.94721 3.92808C9.97099 3.9029 9.98957 3.9 10 3.9V2.1ZM10.9 16.7647V10.4118H9.1V16.7647H10.9ZM14.9 16.7647V10.4118H13.1V16.7647H14.9Z" fill="#A07EFF"/>
  </svg>
  