<svg width="33" height="32" viewBox="0 0 33 32" fill="none" xmlns="http://www.w3.org/2000/svg">
  <path d="M15.3335 5.33333C18.0002 5.33333 20.0002 7.33333 20.0002 10.6667H20.2189C20.7316 10.7003 21.2296 10.8521 21.674 11.1101C22.1184 11.3681 22.4971 11.7253 22.7806 12.1539C23.0641 12.5825 23.2447 13.0708 23.3082 13.5807C23.3717 14.0906 23.3165 14.6083 23.1469 15.0933C23.8839 15.4681 24.4866 16.0619 24.8722 16.7933C25.2578 17.5246 25.4074 18.3575 25.3002 19.1773C26.0522 19.602 26.6466 20.2587 26.9944 21.0493C27.3422 21.8398 27.4249 22.7217 27.2299 23.563C27.035 24.4044 26.573 25.1601 25.913 25.7171C25.253 26.2741 24.4304 26.6026 23.5682 26.6533H10.0002C9.11621 26.6534 8.25711 26.3606 7.55712 25.8207C6.85714 25.2808 6.3557 24.5243 6.13118 23.6693C5.90665 22.8143 5.97167 21.909 6.31609 21.0949C6.66051 20.2807 7.26491 19.6036 8.03487 19.1693C7.928 18.3497 8.07766 17.5171 8.46325 16.7861C8.84885 16.055 9.45145 15.4613 10.1882 15.0867C10.0186 14.6017 9.96334 14.0841 10.0268 13.5743C10.0903 13.0645 10.2707 12.5763 10.554 12.1477C10.8374 11.7192 11.2159 11.3619 11.6602 11.1038C12.1044 10.8458 12.6022 10.6939 13.1149 10.66H13.3335C15.3335 10.66 16.6669 7.99333 15.3335 5.32666V5.33333Z" stroke="#A07EFF" stroke-width="2" stroke-linecap="round" stroke-linejoin="round"/>
  </svg>
  