<svg width="36" height="36" viewBox="0 0 36 36" fill="none" xmlns="http://www.w3.org/2000/svg">
  <rect width="36" height="36" rx="18" fill="#FF4466"/>
  <path d="M29.2383 11.7547C28.8718 10.906 28.3433 10.137 27.6824 9.49064C27.0211 8.84234 26.2413 8.32714 25.3855 7.97307C24.4982 7.60443 23.5464 7.41575 22.5855 7.41799C21.2375 7.41799 19.9223 7.78713 18.7793 8.48439C18.5059 8.65119 18.2461 8.83439 18 9.034C17.7539 8.83439 17.4941 8.65119 17.2207 8.48439C16.0777 7.78713 14.7625 7.41799 13.4145 7.41799C12.4437 7.41799 11.5031 7.60393 10.6145 7.97307C9.75586 8.32854 8.98203 8.83986 8.31758 9.49064C7.65583 10.1363 7.12722 10.9055 6.76172 11.7547C6.38164 12.6379 6.1875 13.5758 6.1875 14.541C6.1875 15.4516 6.37344 16.4004 6.74258 17.3656C7.05156 18.1723 7.49453 19.009 8.06055 19.8539C8.95742 21.191 10.1906 22.5856 11.7219 23.9992C14.2594 26.3426 16.7723 27.9613 16.8789 28.027L17.527 28.4426C17.8141 28.6258 18.1832 28.6258 18.4703 28.4426L19.1184 28.027C19.225 27.9586 21.7352 26.3426 24.2754 23.9992C25.8066 22.5856 27.0398 21.191 27.9367 19.8539C28.5027 19.009 28.9484 18.1723 29.2547 17.3656C29.6238 16.4004 29.8098 15.4516 29.8098 14.541C29.8125 13.5758 29.6184 12.6379 29.2383 11.7547Z" fill="white"/>
  </svg>
  