<svg width="36" height="36" viewBox="0 0 36 36" fill="none" xmlns="http://www.w3.org/2000/svg">
<rect width="36" height="36" rx="18" fill="#A07EFF"/>
<path d="M28.2238 18.5932C28.6832 17.9862 28.9375 17.2424 28.9375 16.4686C28.9375 15.2408 28.2512 14.0787 27.1465 13.4307C26.8621 13.2639 26.5383 13.1761 26.2086 13.1764H19.6516L19.8156 9.81584C19.8539 9.00373 19.5668 8.23264 19.009 7.64475C18.7352 7.35498 18.405 7.12443 18.0386 6.96735C17.6722 6.81026 17.2775 6.72998 16.8789 6.73147C15.457 6.73147 14.1992 7.6885 13.8219 9.05842L11.473 17.5623H11.4648V29.2655H24.3793C24.6309 29.2655 24.877 29.2162 25.1039 29.1178C26.4055 28.5627 27.2449 27.2912 27.2449 25.8803C27.2449 25.5358 27.1957 25.1967 27.0973 24.8686C27.5566 24.2615 27.8109 23.5178 27.8109 22.744C27.8109 22.3994 27.7617 22.0604 27.6633 21.7322C28.1227 21.1252 28.377 20.3815 28.377 19.6076C28.3715 19.2631 28.3223 18.9213 28.2238 18.5932ZM7.0625 18.4373V28.3905C7.0625 28.8744 7.45352 29.2655 7.9375 29.2655H9.71484V17.5623H7.9375C7.45352 17.5623 7.0625 17.9533 7.0625 18.4373Z" fill="white"/>
</svg>
