<svg width="33" height="32" viewBox="0 0 33 32" fill="none" xmlns="http://www.w3.org/2000/svg">
  <path d="M14.9976 5.33333C17.6643 5.33333 19.6643 7.33333 19.6643 10.6667H19.8829C20.3957 10.7003 20.8937 10.8521 21.3381 11.1101C21.7825 11.3681 22.1612 11.7253 22.4447 12.1539C22.7282 12.5825 22.9087 13.0708 22.9723 13.5807C23.0358 14.0906 22.9806 14.6083 22.8109 15.0933C23.5479 15.4681 24.1507 16.0619 24.5363 16.7933C24.9219 17.5246 25.0714 18.3575 24.9643 19.1773C25.7163 19.602 26.3106 20.2587 26.6585 21.0493C27.0063 21.8398 27.0889 22.7217 26.894 23.563C26.6991 24.4044 26.2371 25.1601 25.577 25.7171C24.917 26.2741 24.0944 26.6026 23.2323 26.6533H9.66427C8.78027 26.6534 7.92117 26.3606 7.22118 25.8207C6.5212 25.2808 6.01977 24.5243 5.79524 23.6693C5.57071 22.8143 5.63574 21.909 5.98015 21.0949C6.32457 20.2807 6.92898 19.6036 7.69893 19.1693C7.59207 18.3497 7.74172 17.5171 8.12731 16.7861C8.51291 16.055 9.11551 15.4613 9.85227 15.0867C9.68264 14.6017 9.6274 14.0841 9.69086 13.5743C9.75432 13.0645 9.93476 12.5763 10.2181 12.1477C10.5014 11.7192 10.88 11.3619 11.3242 11.1038C11.7684 10.8458 12.2663 10.6939 12.7789 10.66H12.9976C14.9976 10.66 16.3309 7.99333 14.9976 5.32666V5.33333Z" stroke="white" stroke-width="2" stroke-linecap="round" stroke-linejoin="round"/>
  <path d="M18.0166 19.5199C17.7665 20.3022 17.1381 20.9278 16.3366 21.1999M16.3366 22.8799C14.4839 22.8799 12.9766 21.4603 12.9766 19.7153C12.9766 17.2799 16.3366 13.9199 16.3366 13.9199C16.3366 13.9199 19.6966 17.2799 19.6966 19.7153C19.6966 21.4603 18.1893 22.8799 16.3366 22.8799Z" stroke="white" stroke-width="1.2" stroke-linecap="round" stroke-linejoin="round"/>
  </svg>
  