<svg width="33" height="32" viewBox="0 0 33 32" fill="none" xmlns="http://www.w3.org/2000/svg">
  <path d="M15.0054 5.33333C17.6721 5.33333 19.6721 7.33333 19.6721 10.6667H19.8907C20.4035 10.7003 20.9015 10.8521 21.3459 11.1101C21.7903 11.3681 22.169 11.7253 22.4525 12.1539C22.736 12.5825 22.9165 13.0708 22.9801 13.5807C23.0436 14.0906 22.9884 14.6083 22.8187 15.0933C23.5557 15.4681 24.1585 16.0619 24.5441 16.7933C24.9297 17.5246 25.0792 18.3575 24.9721 19.1773C25.7241 19.602 26.3184 20.2587 26.6663 21.0493C27.0141 21.8398 27.0967 22.7217 26.9018 23.563C26.7069 24.4044 26.2449 25.1601 25.5849 25.7171C24.9248 26.2741 24.1022 26.6026 23.2401 26.6533H9.67208C8.78809 26.6534 7.92898 26.3606 7.229 25.8207C6.52901 25.2808 6.02758 24.5243 5.80305 23.6693C5.57852 22.8143 5.64355 21.909 5.98797 21.0949C6.33238 20.2807 6.93679 19.6036 7.70674 19.1693C7.59988 18.3497 7.74953 17.5171 8.13513 16.7861C8.52072 16.055 9.12333 15.4613 9.86008 15.0867C9.69045 14.6017 9.63521 14.0841 9.69867 13.5743C9.76213 13.0645 9.94257 12.5763 10.2259 12.1477C10.5092 11.7192 10.8878 11.3619 11.332 11.1038C11.7763 10.8458 12.2741 10.6939 12.7867 10.66H13.0054C15.0054 10.66 16.3387 7.99333 15.0054 5.32666V5.33333Z" stroke="#A07EFF" stroke-width="2" stroke-linecap="round" stroke-linejoin="round"/>
  <path d="M18.0166 19.5199C17.7665 20.3022 17.1381 20.9278 16.3366 21.1999M16.3366 22.8799C14.4839 22.8799 12.9766 21.4603 12.9766 19.7153C12.9766 17.2799 16.3366 13.9199 16.3366 13.9199C16.3366 13.9199 19.6966 17.2799 19.6966 19.7153C19.6966 21.4603 18.1893 22.8799 16.3366 22.8799Z" stroke="#A07EFF" stroke-width="1.2" stroke-linecap="round" stroke-linejoin="round"/>
  </svg>
  