<svg width="40" height="40" viewBox="0 0 40 40" fill="none" xmlns="http://www.w3.org/2000/svg">
<rect width="40" height="40" rx="20" fill="#F6F1FF"/>
<path d="M17.7777 26.7424C18.3674 27.2135 19.1462 27.5 19.9999 27.5C20.8536 27.5 21.6324 27.2135 22.2221 26.7424M13.7563 24.3182C13.4049 24.3182 13.2087 23.7662 13.4212 23.4595C13.9144 22.7479 14.3904 21.7043 14.3904 20.4475L14.4107 18.6264C14.4107 15.2429 16.9131 12.5 19.9999 12.5C23.1322 12.5 25.6714 15.2833 25.6714 18.7166L25.6511 20.4475C25.6511 21.7129 26.1107 22.7623 26.5838 23.4742C26.7881 23.7816 26.5914 24.3182 26.2444 24.3182H13.7563Z" stroke="#A07EFF" stroke-width="1.5" stroke-linecap="round" stroke-linejoin="round"/>
</svg>
