<svg width="40" height="40" viewBox="0 0 40 40" fill="none" xmlns="http://www.w3.org/2000/svg">
<rect width="40" height="40" rx="20" fill="#F6F1FF"/>
<path d="M13.332 17.5C13.332 15.1433 13.332 13.9642 14.0645 13.2325C14.7962 12.5 15.9754 12.5 18.332 12.5H21.6654C24.022 12.5 25.2012 12.5 25.9329 13.2325C26.6654 13.9642 26.6654 15.1433 26.6654 17.5V23.19C26.6654 25.4258 26.6654 26.5433 25.962 26.8858C25.2579 27.2275 24.3787 26.5367 22.6204 25.1558L22.0579 24.7133C21.0695 23.9367 20.5745 23.5483 19.9987 23.5483C19.422 23.5483 18.9279 23.9367 17.9395 24.7133L17.3762 25.155C15.6179 26.5367 14.7395 27.2275 14.0354 26.8858C13.332 26.5442 13.332 25.425 13.332 23.19V17.5Z" fill="#A07EFF" stroke="#A07EFF" stroke-width="2"/>
</svg>
