<svg width="24" height="24" viewBox="0 0 24 24" fill="none" xmlns="http://www.w3.org/2000/svg">
  <path d="M1.50026 15.6602L0.750257 15.6602L1.50026 15.6602ZM1.5 6.66032L2.25 6.6603L1.5 6.66032ZM11.6999 18.8103C12.1141 18.8103 12.4499 18.4745 12.4499 18.0603C12.4499 17.6461 12.1142 17.3103 11.6999 17.3103L11.6999 18.8103ZM3.90021 18.0601L3.90023 17.3101H3.90023L3.90021 18.0601ZM20.6995 6.6591L19.9495 6.6591V6.65911L20.6995 6.6591ZM2.09954 7.71011C1.68532 7.71011 1.34954 8.04589 1.34954 8.46011C1.34954 8.87432 1.68532 9.21011 2.09954 9.21011V7.71011ZM20.0995 9.21011C20.5138 9.21011 20.8495 8.87432 20.8495 8.46011C20.8495 8.04589 20.5138 7.71011 20.0995 7.71011V9.21011ZM15.2986 16.8601L14.7682 16.3298C14.6276 16.4704 14.5486 16.6612 14.5486 16.8601H15.2986ZM19.6186 12.5401L20.1489 12.0098C19.856 11.7169 19.3811 11.7169 19.0882 12.0098L19.6186 12.5401ZM22.4986 15.4201L23.0289 15.9504C23.1696 15.8098 23.2486 15.619 23.2486 15.4201C23.2486 15.2212 23.1696 15.0304 23.0289 14.8898L22.4986 15.4201ZM18.1786 19.7401V20.4901C18.3775 20.4901 18.5683 20.4111 18.7089 20.2704L18.1786 19.7401ZM15.2986 19.7401H14.5486C14.5486 20.1543 14.8844 20.4901 15.2986 20.4901V19.7401ZM3.9 5.01025H18.2993V3.51025H3.9V5.01025ZM2.25026 15.6602L2.25 6.6603L0.75 6.66034L0.750257 15.6602L2.25026 15.6602ZM11.6999 17.3103L3.90023 17.3101L3.9002 18.8101L11.6999 18.8103L11.6999 17.3103ZM19.9495 6.65911L19.9495 9.06027L21.4495 9.06024L21.4495 6.65908L19.9495 6.65911ZM3.9 3.51025C2.16027 3.51025 0.74995 4.92061 0.75 6.66034L2.25 6.6603C2.24997 5.74901 2.98871 5.01025 3.9 5.01025V3.51025ZM18.2993 5.01025C19.2112 5.01025 19.9495 5.74828 19.9495 6.6591L21.4495 6.65909C21.4495 4.91875 20.0385 3.51025 18.2993 3.51025V5.01025ZM0.750257 15.6602C0.750306 17.3998 2.16056 18.8101 3.9002 18.8101L3.90023 17.3101C2.98899 17.3101 2.25028 16.5714 2.25026 15.6602L0.750257 15.6602ZM2.09954 9.21011H20.0995V7.71011H2.09954V9.21011ZM15.8289 17.3904L20.1489 13.0704L19.0882 12.0098L14.7682 16.3298L15.8289 17.3904ZM19.0882 13.0704L21.9683 15.9504L23.0289 14.8898L20.1489 12.0098L19.0882 13.0704ZM21.9683 14.8898L17.6482 19.2098L18.7089 20.2704L23.0289 15.9504L21.9683 14.8898ZM18.1786 18.9901H15.2986V20.4901H18.1786V18.9901ZM16.0486 19.7401V16.8601H14.5486V19.7401H16.0486Z" fill="#A07EFF"/>
  </svg>
  