<svg width="36" height="36" viewBox="0 0 36 36" fill="none" xmlns="http://www.w3.org/2000/svg">
  <path d="M18.2634 32.4805V11.5351M15.8259 10.2785C16.0852 10.3367 16.3584 10.2654 16.5451 10.0787C16.7318 9.89202 16.803 9.61867 16.745 9.35947C16.5122 8.4088 15.6549 5.22543 14.7746 4.34513C13.6779 3.24839 11.8929 3.24382 10.8016 4.33514C9.71032 5.42638 9.71474 7.21138 10.8116 8.3082C11.7063 9.2029 14.8752 10.0458 15.8259 10.2785ZM18.4878 9.35939C18.4296 9.6187 18.5009 9.89195 18.6876 10.0786C18.8743 10.2653 19.1476 10.3365 19.4068 10.2785C20.3575 10.0457 23.5408 9.18842 24.4211 8.30812C25.5179 7.21138 25.5225 5.42638 24.4311 4.33506C23.3399 3.24383 21.5549 3.24824 20.4581 4.34506C19.5634 5.23976 18.7205 8.40875 18.4878 9.35939ZM4.64884 18.866H31.3543C31.9327 18.866 32.4016 18.3971 32.4016 17.8187V12.5823C32.4016 12.0039 31.9327 11.5351 31.3543 11.5351H4.64883C4.07044 11.5351 3.60156 12.0039 3.60156 12.5823V17.8187C3.60156 18.3971 4.07044 18.866 4.64884 18.866ZM29.7834 18.866V31.4332C29.7834 32.0116 29.3145 32.4805 28.7361 32.4805H7.26702C6.68862 32.4805 6.21974 32.0116 6.21974 31.4332V18.866H29.7834Z" stroke="#A07EFF" stroke-width="2.5" stroke-linecap="round" stroke-linejoin="round"/>
  </svg>
  