<svg width="24" height="24" viewBox="0 0 24 24" fill="none" xmlns="http://www.w3.org/2000/svg">
  <path d="M13 12C13 11.4477 12.5523 11 12 11C11.4477 11 11 11.4477 11 12H13ZM11 16.5C11 17.0523 11.4477 17.5 12 17.5C12.5523 17.5 13 17.0523 13 16.5H11ZM11 8.66455C11 9.21684 11.4477 9.66455 12 9.66455C12.5523 9.66455 13 9.21684 13 8.66455H11ZM13 8.625C13 8.07272 12.5523 7.625 12 7.625C11.4477 7.625 11 8.07272 11 8.625H13ZM11 12L11 16.5H13L13 12H11ZM13 8.66455V8.625H11V8.66455H13ZM4 12C4 7.58172 7.58172 4 12 4V2C6.47715 2 2 6.47715 2 12L4 12ZM12 4C16.4183 4 20 7.58172 20 12H22C22 6.47715 17.5228 2 12 2V4ZM20 12C20 16.4183 16.4183 20 12 20L12 22C17.5228 22 22 17.5228 22 12H20ZM12 20C7.58172 20 4 16.4183 4 12L2 12C2 17.5228 6.47715 22 12 22L12 20Z" fill="#A07EFF"/>
  </svg>
  