<svg width="36" height="36" viewBox="0 0 36 36" fill="none" xmlns="http://www.w3.org/2000/svg">
<path d="M13.5 15H13.515M22.5 15H22.515M14.25 22.875C14.7388 22.3761 15.3223 21.9798 15.9662 21.7092C16.6101 21.4386 17.3015 21.2992 18 21.2992C18.6985 21.2992 19.3899 21.4386 20.0338 21.7092C20.6777 21.9798 21.2612 22.3761 21.75 22.875M26.349 26.409C25.9398 26.83 25.6632 27.3618 25.5533 27.9385C25.4435 28.5151 25.5052 29.1114 25.7309 29.6533C25.9566 30.1953 26.3364 30.6591 26.8231 30.9873C27.3099 31.3155 27.8822 31.4936 28.4693 31.4997C29.0563 31.5058 29.6322 31.3395 30.1256 31.0215C30.6191 30.7034 31.0084 30.2476 31.2452 29.7104C31.4821 29.1733 31.5562 28.5784 31.4583 27.9996C31.3604 27.4208 31.0948 26.8834 30.6945 26.454L28.5 24L26.349 26.409Z" stroke="#A07EFF" stroke-width="3" stroke-linecap="round" stroke-linejoin="round"/>
<path d="M31.2975 20.2755C31.4292 19.5241 31.4969 18.7629 31.5 18C31.5 15.33 30.7082 12.7199 29.2248 10.4998C27.7414 8.27974 25.633 6.54942 23.1662 5.52763C20.6994 4.50585 17.985 4.2385 15.3663 4.7594C12.7475 5.28031 10.3421 6.56606 8.45406 8.45406C6.56606 10.3421 5.28031 12.7475 4.7594 15.3663C4.2385 17.985 4.50585 20.6994 5.52763 23.1662C6.54942 25.633 8.27974 27.7414 10.4998 29.2248C12.7199 30.7082 15.33 31.5 18 31.5C19.035 31.5 20.04 31.386 21 31.167" stroke="#A07EFF" stroke-width="3" stroke-linecap="round" stroke-linejoin="round"/>
</svg>
